<svg width="155" height="41" viewBox="0 0 155 41" fill="none" xmlns="http://www.w3.org/2000/svg">
<rect width="155" height="40.7327" rx="3" fill="#E6E6E6"/>
<path d="M32.5158 13.8125V11.5455H46.0243V13.8125H40.5783V29H37.9533V13.8125H32.5158ZM57.9757 15.9091L53.2286 29H50.5013L45.7456 15.9091H48.4814L51.7968 25.983H51.9331L55.2399 15.9091H57.9757ZM75.4759 19.1051L73.1662 19.5142C73.0696 19.2187 72.9162 18.9375 72.706 18.6705C72.5014 18.4034 72.223 18.1847 71.8707 18.0142C71.5185 17.8437 71.0781 17.7585 70.5497 17.7585C69.8281 17.7585 69.2259 17.9205 68.7429 18.2443C68.2599 18.5625 68.0185 18.9744 68.0185 19.4801C68.0185 19.9176 68.1804 20.2699 68.5043 20.5369C68.8281 20.804 69.3509 21.0227 70.0724 21.1932L72.152 21.6705C73.3565 21.9489 74.2543 22.3778 74.8452 22.9574C75.4361 23.5369 75.7315 24.2898 75.7315 25.2159C75.7315 26 75.5043 26.6989 75.0497 27.3125C74.6009 27.9205 73.973 28.3977 73.1662 28.7443C72.3651 29.0909 71.4361 29.2642 70.3793 29.2642C68.9134 29.2642 67.7173 28.9517 66.7912 28.3267C65.8651 27.696 65.2969 26.8011 65.0866 25.642L67.5497 25.267C67.7031 25.9091 68.0185 26.3949 68.4957 26.7244C68.973 27.0483 69.5952 27.2102 70.3622 27.2102C71.1974 27.2102 71.8651 27.0369 72.3651 26.6903C72.8651 26.3381 73.1151 25.9091 73.1151 25.4034C73.1151 24.9943 72.9616 24.6506 72.6548 24.3722C72.3537 24.0937 71.8906 23.8835 71.2656 23.7415L69.0497 23.2557C67.8281 22.9773 66.9247 22.5341 66.3395 21.9261C65.7599 21.3182 65.4702 20.5483 65.4702 19.6165C65.4702 18.8437 65.6861 18.1676 66.1179 17.5881C66.5497 17.0085 67.1463 16.5568 67.9077 16.233C68.669 15.9034 69.5412 15.7386 70.5241 15.7386C71.9389 15.7386 73.0526 16.0455 73.8651 16.6591C74.6776 17.267 75.2145 18.0824 75.4759 19.1051ZM80.5537 21.2273V29H78.0054V11.5455H80.5196V18.0398H80.6815C80.9883 17.3352 81.4571 16.7756 82.0878 16.3608C82.7184 15.946 83.5423 15.7386 84.5594 15.7386C85.4571 15.7386 86.2412 15.9233 86.9116 16.2926C87.5878 16.6619 88.1105 17.2131 88.4798 17.946C88.8548 18.6733 89.0423 19.5824 89.0423 20.6733V29H86.494V20.9801C86.494 20.0199 86.2469 19.2756 85.7525 18.7472C85.2582 18.2131 84.5707 17.946 83.69 17.946C83.0878 17.946 82.548 18.0739 82.0707 18.3295C81.5991 18.5852 81.227 18.9602 80.9542 19.4545C80.6872 19.9432 80.5537 20.5341 80.5537 21.2273ZM97.4291 29.2642C96.2018 29.2642 95.1308 28.983 94.216 28.4205C93.3012 27.858 92.591 27.071 92.0853 26.0597C91.5797 25.0483 91.3268 23.8665 91.3268 22.5142C91.3268 21.1562 91.5797 19.9687 92.0853 18.9517C92.591 17.9347 93.3012 17.1449 94.216 16.5824C95.1308 16.0199 96.2018 15.7386 97.4291 15.7386C98.6564 15.7386 99.7274 16.0199 100.642 16.5824C101.557 17.1449 102.267 17.9347 102.773 18.9517C103.279 19.9687 103.531 21.1562 103.531 22.5142C103.531 23.8665 103.279 25.0483 102.773 26.0597C102.267 27.071 101.557 27.858 100.642 28.4205C99.7274 28.983 98.6564 29.2642 97.4291 29.2642ZM97.4376 27.125C98.2331 27.125 98.8922 26.9148 99.4149 26.4943C99.9376 26.0739 100.324 25.5142 100.574 24.8153C100.83 24.1165 100.957 23.3466 100.957 22.5057C100.957 21.6705 100.83 20.9034 100.574 20.2045C100.324 19.5 99.9376 18.9347 99.4149 18.5085C98.8922 18.0824 98.2331 17.8693 97.4376 17.8693C96.6365 17.8693 95.9717 18.0824 95.4433 18.5085C94.9206 18.9347 94.5314 19.5 94.2757 20.2045C94.0257 20.9034 93.9007 21.6705 93.9007 22.5057C93.9007 23.3466 94.0257 24.1165 94.2757 24.8153C94.5314 25.5142 94.9206 26.0739 95.4433 26.4943C95.9717 26.9148 96.6365 27.125 97.4376 27.125ZM108.287 29L104.435 15.9091H107.069L109.634 25.5227H109.762L112.336 15.9091H114.969L117.526 25.4801H117.654L120.202 15.9091H122.836L118.992 29H116.393L113.733 19.5483H113.537L110.878 29H108.287ZM126.959 29.1619C126.493 29.1619 126.092 28.9972 125.757 28.6676C125.422 28.3324 125.254 27.929 125.254 27.4574C125.254 26.9915 125.422 26.5937 125.757 26.2642C126.092 25.929 126.493 25.7614 126.959 25.7614C127.425 25.7614 127.825 25.929 128.16 26.2642C128.496 26.5937 128.663 26.9915 128.663 27.4574C128.663 27.7699 128.584 28.0568 128.425 28.3182C128.271 28.5739 128.067 28.7784 127.811 28.9318C127.555 29.0852 127.271 29.1619 126.959 29.1619ZM133.325 29.1619C132.859 29.1619 132.459 28.9972 132.123 28.6676C131.788 28.3324 131.621 27.929 131.621 27.4574C131.621 26.9915 131.788 26.5937 132.123 26.2642C132.459 25.929 132.859 25.7614 133.325 25.7614C133.791 25.7614 134.192 25.929 134.527 26.2642C134.862 26.5937 135.03 26.9915 135.03 27.4574C135.03 27.7699 134.95 28.0568 134.791 28.3182C134.638 28.5739 134.433 28.7784 134.177 28.9318C133.922 29.0852 133.638 29.1619 133.325 29.1619ZM139.7 29.1619C139.234 29.1619 138.834 28.9972 138.498 28.6676C138.163 28.3324 137.996 27.929 137.996 27.4574C137.996 26.9915 138.163 26.5937 138.498 26.2642C138.834 25.929 139.234 25.7614 139.7 25.7614C140.166 25.7614 140.567 25.929 140.902 26.2642C141.237 26.5937 141.405 26.9915 141.405 27.4574C141.405 27.7699 141.325 28.0568 141.166 28.3182C141.013 28.5739 140.808 28.7784 140.552 28.9318C140.297 29.0852 140.013 29.1619 139.7 29.1619Z" fill="black" fill-opacity="0.8"/>
</svg>
