<svg width="33" height="33" viewBox="0 0 33 33" fill="none" xmlns="http://www.w3.org/2000/svg">
<g clip-path="url(#clip0_23_268)">
<path d="M16.5 30.25C24.0939 30.25 30.25 24.0939 30.25 16.5C30.25 8.90608 24.0939 2.75 16.5 2.75C8.90608 2.75 2.75 8.90608 2.75 16.5C2.75 24.0939 8.90608 30.25 16.5 30.25Z" fill="#2F88FF" stroke="black" stroke-width="4" stroke-linejoin="round"/>
<path d="M16.5 12.375C17.6391 12.375 18.5625 11.4516 18.5625 10.3125C18.5625 9.17338 17.6391 8.25 16.5 8.25C15.3609 8.25 14.4375 9.17338 14.4375 10.3125C14.4375 11.4516 15.3609 12.375 16.5 12.375Z" fill="#43CCF8" stroke="white" stroke-width="4" stroke-linejoin="round"/>
<path d="M16.5 24.75C17.6391 24.75 18.5625 23.8266 18.5625 22.6875C18.5625 21.5484 17.6391 20.625 16.5 20.625C15.3609 20.625 14.4375 21.5484 14.4375 22.6875C14.4375 23.8266 15.3609 24.75 16.5 24.75Z" fill="#43CCF8" stroke="white" stroke-width="4" stroke-linejoin="round"/>
<path d="M10.3125 18.5625C11.4516 18.5625 12.375 17.6391 12.375 16.5C12.375 15.3609 11.4516 14.4375 10.3125 14.4375C9.17338 14.4375 8.25 15.3609 8.25 16.5C8.25 17.6391 9.17338 18.5625 10.3125 18.5625Z" fill="#43CCF8" stroke="white" stroke-width="4" stroke-linejoin="round"/>
<path d="M22.6875 18.5625C23.8266 18.5625 24.75 17.6391 24.75 16.5C24.75 15.3609 23.8266 14.4375 22.6875 14.4375C21.5484 14.4375 20.625 15.3609 20.625 16.5C20.625 17.6391 21.5484 18.5625 22.6875 18.5625Z" fill="#43CCF8" stroke="white" stroke-width="4" stroke-linejoin="round"/>
<path d="M16.5 30.25H30.25" stroke="black" stroke-width="4" stroke-linecap="round"/>
</g>
<defs>
<clipPath id="clip0_23_268">
<rect width="33" height="33" fill="white"/>
</clipPath>
</defs>
</svg>
