<svg width="155" height="41" viewBox="0 0 155 41" fill="none" xmlns="http://www.w3.org/2000/svg">
<rect width="155" height="40.7327" rx="3" fill="#E6E6E6"/>
<path d="M48.0885 11.5455H51.2845L56.8414 25.1136H57.0459L62.6027 11.5455H65.7987V29H63.2931V16.3693H63.1311L57.9834 28.9744H55.9039L50.7561 16.3608H50.5942V29H48.0885V11.5455ZM74.5371 29.2642C73.2473 29.2642 72.1365 28.9886 71.2047 28.4375C70.2786 27.8807 69.5627 27.0994 69.057 26.0938C68.557 25.0824 68.307 23.8977 68.307 22.5398C68.307 21.1989 68.557 20.017 69.057 18.9943C69.5627 17.9716 70.2672 17.1733 71.1706 16.5994C72.0797 16.0256 73.1422 15.7386 74.3581 15.7386C75.0967 15.7386 75.8127 15.8608 76.5058 16.1051C77.199 16.3494 77.8212 16.733 78.3723 17.2557C78.9234 17.7784 79.3581 18.4574 79.6763 19.2926C79.9945 20.1222 80.1536 21.1307 80.1536 22.3182V23.2216H69.7473V21.3125H77.6564C77.6564 20.642 77.52 20.0483 77.2473 19.5312C76.9746 19.0085 76.5911 18.5966 76.0967 18.2955C75.6081 17.9943 75.0342 17.8438 74.3752 17.8438C73.6592 17.8438 73.0342 18.0199 72.5002 18.3722C71.9717 18.7187 71.5627 19.1733 71.2729 19.7358C70.9888 20.2926 70.8467 20.8977 70.8467 21.5511V23.0426C70.8467 23.9176 71.0002 24.6619 71.307 25.2756C71.6195 25.8892 72.0541 26.358 72.6109 26.6818C73.1678 27 73.8183 27.1591 74.5627 27.1591C75.0456 27.1591 75.4859 27.0909 75.8837 26.9545C76.2814 26.8125 76.6252 26.6023 76.9149 26.3239C77.2047 26.0455 77.4263 25.7017 77.5797 25.2926L79.9916 25.7273C79.7984 26.4375 79.4519 27.0597 78.9519 27.5938C78.4575 28.1222 77.8354 28.5341 77.0854 28.8295C76.3411 29.1193 75.4916 29.2642 74.5371 29.2642ZM85.0013 21.2273V29H82.453V15.9091H84.899V18.0398H85.0609C85.3621 17.3466 85.8337 16.7898 86.4757 16.3693C87.1234 15.9489 87.9388 15.7386 88.9217 15.7386C89.8138 15.7386 90.595 15.9261 91.2655 16.3011C91.9359 16.6705 92.4558 17.2216 92.8251 17.9545C93.1945 18.6875 93.3791 19.5937 93.3791 20.6733V29H90.8308V20.9801C90.8308 20.0312 90.5837 19.2898 90.0893 18.7557C89.595 18.2159 88.916 17.946 88.0524 17.946C87.4615 17.946 86.9359 18.0739 86.4757 18.3295C86.0212 18.5852 85.6604 18.9602 85.3933 19.4545C85.132 19.9432 85.0013 20.5341 85.0013 21.2273ZM104.561 23.571V15.9091H107.118V29H104.612V26.733H104.476C104.175 27.4318 103.692 28.0142 103.027 28.4801C102.368 28.9403 101.547 29.1705 100.564 29.1705C99.7233 29.1705 98.979 28.9858 98.3312 28.6165C97.6892 28.2415 97.1835 27.6875 96.8142 26.9545C96.4505 26.2216 96.2687 25.3153 96.2687 24.2358V15.9091H98.817V23.929C98.817 24.821 99.0642 25.5312 99.5585 26.0597C100.053 26.5881 100.695 26.8523 101.485 26.8523C101.962 26.8523 102.436 26.733 102.908 26.4943C103.385 26.2557 103.78 25.8949 104.093 25.4119C104.411 24.929 104.567 24.3153 104.561 23.571Z" fill="black" fill-opacity="0.8"/>
</svg>
