<svg width="155" height="41" viewBox="0 0 155 41" fill="none" xmlns="http://www.w3.org/2000/svg">
<rect width="155" height="40.7327" rx="3" fill="#E6E6E6"/>
<path d="M45.8681 11.5455H49.0642L54.621 25.1136H54.8255L60.3823 11.5455H63.5784V29H61.0727V16.3693H60.9108L55.763 28.9744H53.6835L48.5358 16.3608H48.3738V29H45.8681V11.5455ZM72.1889 29.2642C70.9616 29.2642 69.8906 28.983 68.9758 28.4205C68.061 27.858 67.3508 27.071 66.8451 26.0597C66.3394 25.0483 66.0866 23.8665 66.0866 22.5142C66.0866 21.1562 66.3394 19.9687 66.8451 18.9517C67.3508 17.9347 68.061 17.1449 68.9758 16.5824C69.8906 16.0199 70.9616 15.7386 72.1889 15.7386C73.4161 15.7386 74.4872 16.0199 75.4019 16.5824C76.3167 17.1449 77.0269 17.9347 77.5326 18.9517C78.0383 19.9687 78.2911 21.1562 78.2911 22.5142C78.2911 23.8665 78.0383 25.0483 77.5326 26.0597C77.0269 27.071 76.3167 27.858 75.4019 28.4205C74.4872 28.983 73.4161 29.2642 72.1889 29.2642ZM72.1974 27.125C72.9928 27.125 73.6519 26.9148 74.1747 26.4943C74.6974 26.0739 75.0838 25.5142 75.3338 24.8153C75.5894 24.1165 75.7173 23.3466 75.7173 22.5057C75.7173 21.6705 75.5894 20.9034 75.3338 20.2045C75.0838 19.5 74.6974 18.9347 74.1747 18.5085C73.6519 18.0824 72.9928 17.8693 72.1974 17.8693C71.3963 17.8693 70.7315 18.0824 70.2031 18.5085C69.6803 18.9347 69.2911 19.5 69.0355 20.2045C68.7855 20.9034 68.6605 21.6705 68.6605 22.5057C68.6605 23.3466 68.7855 24.1165 69.0355 24.8153C69.2911 25.5142 69.6803 26.0739 70.2031 26.4943C70.7315 26.9148 71.3963 27.125 72.1974 27.125ZM91.3612 15.9091L86.614 29H83.8867L79.131 15.9091H81.8668L85.1822 25.983H85.3185L88.6254 15.9091H91.3612ZM93.228 29V15.9091H95.7763V29H93.228ZM94.515 13.8892C94.0718 13.8892 93.6911 13.7415 93.3729 13.446C93.0604 13.1449 92.9042 12.7869 92.9042 12.3722C92.9042 11.9517 93.0604 11.5937 93.3729 11.2983C93.6911 10.9972 94.0718 10.8466 94.515 10.8466C94.9582 10.8466 95.336 10.9972 95.6485 11.2983C95.9667 11.5937 96.1258 11.9517 96.1258 12.3722C96.1258 12.7869 95.9667 13.1449 95.6485 13.446C95.336 13.7415 94.9582 13.8892 94.515 13.8892ZM104.319 29.2642C103.029 29.2642 101.918 28.9886 100.986 28.4375C100.06 27.8807 99.3442 27.0994 98.8385 26.0938C98.3385 25.0824 98.0885 23.8977 98.0885 22.5398C98.0885 21.1989 98.3385 20.017 98.8385 18.9943C99.3442 17.9716 100.049 17.1733 100.952 16.5994C101.861 16.0256 102.924 15.7386 104.14 15.7386C104.878 15.7386 105.594 15.8608 106.287 16.1051C106.981 16.3494 107.603 16.733 108.154 17.2557C108.705 17.7784 109.14 18.4574 109.458 19.2926C109.776 20.1222 109.935 21.1307 109.935 22.3182V23.2216H99.5289V21.3125H107.438C107.438 20.642 107.302 20.0483 107.029 19.5312C106.756 19.0085 106.373 18.5966 105.878 18.2955C105.39 17.9943 104.816 17.8438 104.157 17.8438C103.441 17.8438 102.816 18.0199 102.282 18.3722C101.753 18.7187 101.344 19.1733 101.054 19.7358C100.77 20.2926 100.628 20.8977 100.628 21.5511V23.0426C100.628 23.9176 100.782 24.6619 101.089 25.2756C101.401 25.8892 101.836 26.358 102.393 26.6818C102.949 27 103.6 27.1591 104.344 27.1591C104.827 27.1591 105.268 27.0909 105.665 26.9545C106.063 26.8125 106.407 26.6023 106.696 26.3239C106.986 26.0455 107.208 25.7017 107.361 25.2926L109.773 25.7273C109.58 26.4375 109.233 27.0597 108.733 27.5938C108.239 28.1222 107.617 28.5341 106.867 28.8295C106.123 29.1193 105.273 29.2642 104.319 29.2642Z" fill="black" fill-opacity="0.8"/>
</svg>
