<svg width="41" height="41" viewBox="0 0 41 41" fill="none" xmlns="http://www.w3.org/2000/svg">
<path d="M35.875 35.875L25.625 25.625M5.125 17.0833C5.125 18.6537 5.43431 20.2087 6.03527 21.6596C6.63624 23.1104 7.51708 24.4287 8.62751 25.5392C9.73795 26.6496 11.0562 27.5304 12.5071 28.1314C13.9579 28.7324 15.5129 29.0417 17.0833 29.0417C18.6537 29.0417 20.2087 28.7324 21.6596 28.1314C23.1104 27.5304 24.4287 26.6496 25.5392 25.5392C26.6496 24.4287 27.5304 23.1104 28.1314 21.6596C28.7324 20.2087 29.0417 18.6537 29.0417 17.0833C29.0417 15.5129 28.7324 13.9579 28.1314 12.5071C27.5304 11.0562 26.6496 9.73795 25.5392 8.62751C24.4287 7.51708 23.1104 6.63624 21.6596 6.03527C20.2087 5.43431 18.6537 5.125 17.0833 5.125C15.5129 5.125 13.9579 5.43431 12.5071 6.03527C11.0562 6.63624 9.73795 7.51708 8.62751 8.62751C7.51708 9.73795 6.63624 11.0562 6.03527 12.5071C5.43431 13.9579 5.125 15.5129 5.125 17.0833Z" stroke="black" stroke-width="2" stroke-linecap="round" stroke-linejoin="round"/>
</svg>
