<svg width="1106" height="246" viewBox="0 0 1106 246" fill="none" xmlns="http://www.w3.org/2000/svg">
<rect x="1" y="1" width="1104" height="244" rx="6" fill="#D1D1D1" stroke="#A7A7A7" stroke-width="2" stroke-miterlimit="0" stroke-linecap="round"/>
<path d="M488.875 117.841C488.753 116.765 488.253 115.932 487.375 115.341C486.496 114.742 485.39 114.443 484.056 114.443C483.102 114.443 482.276 114.595 481.579 114.898C480.882 115.193 480.34 115.602 479.954 116.125C479.575 116.64 479.386 117.227 479.386 117.886C479.386 118.439 479.515 118.917 479.772 119.318C480.037 119.72 480.382 120.057 480.806 120.33C481.238 120.595 481.7 120.818 482.193 121C482.685 121.174 483.159 121.318 483.613 121.432L485.886 122.023C486.628 122.205 487.39 122.451 488.17 122.761C488.95 123.072 489.674 123.481 490.34 123.989C491.007 124.496 491.545 125.125 491.954 125.875C492.371 126.625 492.579 127.523 492.579 128.568C492.579 129.886 492.238 131.057 491.556 132.08C490.882 133.102 489.901 133.909 488.613 134.5C487.333 135.091 485.784 135.386 483.965 135.386C482.223 135.386 480.715 135.11 479.443 134.557C478.17 134.004 477.174 133.22 476.454 132.205C475.734 131.182 475.337 129.97 475.261 128.568H478.784C478.852 129.409 479.125 130.11 479.602 130.67C480.087 131.223 480.704 131.636 481.454 131.909C482.212 132.174 483.041 132.307 483.943 132.307C484.935 132.307 485.818 132.152 486.59 131.841C487.371 131.523 487.984 131.083 488.431 130.523C488.878 129.955 489.102 129.292 489.102 128.534C489.102 127.845 488.905 127.28 488.511 126.841C488.125 126.402 487.598 126.038 486.931 125.75C486.272 125.462 485.526 125.208 484.693 124.989L481.943 124.239C480.079 123.731 478.602 122.985 477.511 122C476.428 121.015 475.886 119.712 475.886 118.091C475.886 116.75 476.25 115.58 476.977 114.58C477.704 113.58 478.689 112.803 479.931 112.25C481.174 111.689 482.575 111.409 484.136 111.409C485.712 111.409 487.102 111.686 488.306 112.239C489.518 112.792 490.473 113.553 491.17 114.523C491.867 115.485 492.231 116.591 492.261 117.841H488.875ZM499.164 111.727V135H495.766V111.727H499.164ZM502.999 135V117.545H506.397V135H502.999ZM504.715 114.852C504.124 114.852 503.617 114.655 503.192 114.261C502.776 113.86 502.567 113.383 502.567 112.83C502.567 112.269 502.776 111.792 503.192 111.398C503.617 110.996 504.124 110.795 504.715 110.795C505.306 110.795 505.81 110.996 506.226 111.398C506.651 111.792 506.863 112.269 506.863 112.83C506.863 113.383 506.651 113.86 506.226 114.261C505.81 114.655 505.306 114.852 504.715 114.852ZM516.766 135.341C515.357 135.341 514.099 134.981 512.993 134.261C511.895 133.534 511.031 132.5 510.402 131.159C509.781 129.811 509.47 128.193 509.47 126.307C509.47 124.42 509.785 122.807 510.414 121.466C511.05 120.125 511.921 119.098 513.027 118.386C514.133 117.674 515.387 117.318 516.789 117.318C517.872 117.318 518.743 117.5 519.402 117.864C520.069 118.22 520.584 118.636 520.948 119.114C521.319 119.591 521.607 120.011 521.811 120.375H522.016V111.727H525.414V135H522.095V132.284H521.811C521.607 132.655 521.311 133.08 520.925 133.557C520.546 134.034 520.024 134.451 519.357 134.807C518.69 135.163 517.827 135.341 516.766 135.341ZM517.516 132.443C518.493 132.443 519.319 132.186 519.993 131.67C520.675 131.148 521.19 130.424 521.539 129.5C521.895 128.576 522.073 127.5 522.073 126.273C522.073 125.061 521.899 124 521.55 123.091C521.202 122.182 520.69 121.473 520.016 120.966C519.342 120.458 518.508 120.205 517.516 120.205C516.493 120.205 515.641 120.47 514.959 121C514.277 121.53 513.762 122.254 513.414 123.17C513.073 124.087 512.902 125.121 512.902 126.273C512.902 127.439 513.077 128.489 513.425 129.42C513.774 130.352 514.289 131.091 514.97 131.636C515.66 132.174 516.508 132.443 517.516 132.443ZM537.05 135.352C535.33 135.352 533.849 134.985 532.607 134.25C531.372 133.508 530.417 132.466 529.743 131.125C529.076 129.777 528.743 128.197 528.743 126.386C528.743 124.598 529.076 123.023 529.743 121.659C530.417 120.295 531.357 119.231 532.561 118.466C533.773 117.701 535.19 117.318 536.811 117.318C537.796 117.318 538.751 117.481 539.675 117.807C540.599 118.133 541.429 118.644 542.163 119.341C542.898 120.038 543.478 120.943 543.902 122.057C544.326 123.163 544.538 124.508 544.538 126.091V127.295H530.663V124.75H541.209C541.209 123.856 541.027 123.064 540.663 122.375C540.3 121.678 539.788 121.129 539.129 120.727C538.478 120.326 537.713 120.125 536.834 120.125C535.879 120.125 535.046 120.36 534.334 120.83C533.629 121.292 533.084 121.898 532.698 122.648C532.319 123.39 532.129 124.197 532.129 125.068V127.057C532.129 128.223 532.334 129.216 532.743 130.034C533.16 130.852 533.739 131.477 534.482 131.909C535.224 132.333 536.091 132.545 537.084 132.545C537.728 132.545 538.315 132.455 538.845 132.273C539.376 132.083 539.834 131.803 540.22 131.432C540.607 131.061 540.902 130.602 541.107 130.057L544.323 130.636C544.065 131.583 543.603 132.413 542.936 133.125C542.277 133.83 541.448 134.379 540.448 134.773C539.455 135.159 538.323 135.352 537.05 135.352ZM568.385 121.807L565.305 122.352C565.176 121.958 564.972 121.583 564.691 121.227C564.419 120.871 564.048 120.58 563.578 120.352C563.108 120.125 562.521 120.011 561.816 120.011C560.854 120.011 560.051 120.227 559.407 120.659C558.763 121.083 558.441 121.633 558.441 122.307C558.441 122.89 558.657 123.36 559.089 123.716C559.521 124.072 560.218 124.364 561.18 124.591L563.953 125.227C565.559 125.598 566.756 126.17 567.544 126.943C568.332 127.716 568.726 128.72 568.726 129.955C568.726 131 568.423 131.932 567.816 132.75C567.218 133.561 566.381 134.197 565.305 134.659C564.237 135.121 562.998 135.352 561.589 135.352C559.635 135.352 558.04 134.936 556.805 134.102C555.57 133.261 554.813 132.068 554.532 130.523L557.816 130.023C558.021 130.879 558.441 131.527 559.078 131.966C559.714 132.398 560.544 132.614 561.566 132.614C562.68 132.614 563.57 132.383 564.237 131.92C564.904 131.451 565.237 130.879 565.237 130.205C565.237 129.659 565.032 129.201 564.623 128.83C564.222 128.458 563.604 128.178 562.771 127.989L559.816 127.341C558.188 126.97 556.983 126.379 556.203 125.568C555.43 124.758 555.044 123.731 555.044 122.489C555.044 121.458 555.332 120.557 555.907 119.784C556.483 119.011 557.279 118.409 558.294 117.977C559.309 117.538 560.472 117.318 561.782 117.318C563.669 117.318 565.154 117.727 566.237 118.545C567.32 119.356 568.036 120.443 568.385 121.807ZM575.123 124.636V135H571.725V111.727H575.078V120.386H575.294C575.703 119.447 576.328 118.701 577.169 118.148C578.009 117.595 579.108 117.318 580.464 117.318C581.661 117.318 582.706 117.564 583.6 118.057C584.502 118.549 585.199 119.284 585.691 120.261C586.191 121.231 586.441 122.443 586.441 123.898V135H583.044V124.307C583.044 123.027 582.714 122.034 582.055 121.33C581.396 120.617 580.479 120.261 579.305 120.261C578.502 120.261 577.782 120.432 577.146 120.773C576.517 121.114 576.021 121.614 575.657 122.273C575.301 122.924 575.123 123.712 575.123 124.636ZM597.592 135.352C595.955 135.352 594.527 134.977 593.308 134.227C592.088 133.477 591.141 132.428 590.467 131.08C589.792 129.731 589.455 128.155 589.455 126.352C589.455 124.542 589.792 122.958 590.467 121.602C591.141 120.246 592.088 119.193 593.308 118.443C594.527 117.693 595.955 117.318 597.592 117.318C599.228 117.318 600.656 117.693 601.876 118.443C603.095 119.193 604.042 120.246 604.717 121.602C605.391 122.958 605.728 124.542 605.728 126.352C605.728 128.155 605.391 129.731 604.717 131.08C604.042 132.428 603.095 133.477 601.876 134.227C600.656 134.977 599.228 135.352 597.592 135.352ZM597.603 132.5C598.664 132.5 599.542 132.22 600.239 131.659C600.936 131.098 601.451 130.352 601.785 129.42C602.126 128.489 602.296 127.462 602.296 126.341C602.296 125.227 602.126 124.205 601.785 123.273C601.451 122.333 600.936 121.58 600.239 121.011C599.542 120.443 598.664 120.159 597.603 120.159C596.535 120.159 595.648 120.443 594.944 121.011C594.247 121.58 593.728 122.333 593.387 123.273C593.054 124.205 592.887 125.227 592.887 126.341C592.887 127.462 593.054 128.489 593.387 129.42C593.728 130.352 594.247 131.098 594.944 131.659C595.648 132.22 596.535 132.5 597.603 132.5ZM612.037 135L606.901 117.545H610.412L613.833 130.364H614.003L617.435 117.545H620.947L624.356 130.307H624.526L627.924 117.545H631.435L626.31 135H622.844L619.299 122.398H619.037L615.492 135H612.037Z" fill="black" fill-opacity="0.8"/>
</svg>
